<?xml version="1.0" encoding="utf-8"?>
<!-- Generator: Adobe Illustrator 23.0.1, SVG Export Plug-In . SVG Version: 6.00 Build 0)  -->
<svg version="1.1" id="Capa_1" xmlns="http://www.w3.org/2000/svg" xmlns:xlink="http://www.w3.org/1999/xlink" x="0px" y="0px"
	 viewBox="0 0 841.9 308.3" style="enable-background:new 0 0 841.9 308.3;" xml:space="preserve">
<style type="text/css">
	.st0{fill:#444242;}
	.st1{fill:#4A72B2;}
</style>
<g>
	<g>
		<path class="st0" d="M290.9,264.8c-15.2,0-25.7-8.8-25.7-23.6c0-14.2,9.8-23.3,28-23.3h18v-6.5c0-6.3-3.9-9.8-10.5-9.8
			c-6.6,0-10.6,3.6-10.9,9H268c0.4-12.7,8.2-26,33-26c18.7,0,33.2,7.9,33.2,27.1v51.9h-21.9v-9.3h-1
			C308.6,259.7,302.3,264.8,290.9,264.8z M311.1,238.3v-7.7h-11.8c-7.2,0-11.2,3.5-11.2,8.7c0,6.1,5.2,9.2,10.7,9.2
			C305.5,248.6,311.1,244.5,311.1,238.3z"/>
		<path class="st0" d="M374.9,251.9h-1v37.6h-23.5V185.8h23.3v11.9h1.1c3.6-7.7,11.4-12.8,22.1-12.8c17.2,0,28.7,12.8,28.7,36.6v6.3
			c0,23.7-11.4,36.7-28.9,36.7C386.1,264.6,378.4,259.5,374.9,251.9z M401.5,227.1v-4.8c0-12.5-5.3-19.2-13.6-19.2
			c-8.4,0-14,6.9-14,19.2v4.8c0,12.4,5.7,19.4,14.1,19.4C396,246.5,401.5,239.9,401.5,227.1z"/>
		<path class="st0" d="M461.5,264.8c-15.2,0-25.7-8.8-25.7-23.6c0-14.2,9.8-23.3,28-23.3h18v-6.5c0-6.3-3.9-9.8-10.5-9.8
			c-6.6,0-10.6,3.6-10.9,9h-21.8c0.4-12.7,8.2-26,33-26c18.7,0,33.2,7.9,33.2,27.1v51.9h-21.9v-9.3h-1
			C479.3,259.7,473,264.8,461.5,264.8z M481.8,238.3v-7.7H470c-7.2,0-11.2,3.5-11.2,8.7c0,6.1,5.2,9.2,10.7,9.2
			C476.2,248.6,481.8,244.5,481.8,238.3z"/>
		<path class="st0" d="M517.9,221.5c0-21.9,13.5-37.1,36.1-37.1c20.7,0,33.2,12.8,33.6,29.6h-21.1c-0.7-6.3-5.1-11.5-11.5-11.5
			c-8.3,0-13.5,7.4-13.5,19.1v5.4c0,12.8,5.2,20.2,13.6,20.2c7.9,0,11.1-5.2,11.7-11h21.1c-1,19.8-15.2,29-33.9,29
			c-22,0-36-14.1-36-38V221.5z"/>
		<path class="st0" d="M613.3,154.8c6.9,0,12.6,4.5,12.6,11.4s-5.7,11.4-12.6,11.4c-6.9,0-12.6-4.5-12.6-11.4
			S606.3,154.8,613.3,154.8z M601.6,185.8h23.3v77.9h-23.3V185.8z"/>
		<path class="st0" d="M648.6,167.7h22.5v18.1H686v17.7h-14.9v33.8c0,6.9,3.4,9.2,10.5,9.2c1.8,0,3.8-0.1,4.6-0.1v16.8
			c-1.8,0.3-5.5,0.7-10.2,0.7c-20,0-28-6.1-28-22.4v-38h-11.4v-17.7h12V167.7z"/>
		<path class="st0" d="M749.5,259.9l-2,5.2c-7.1,18.9-17.6,25.9-36.8,25.9c-3.9,0-9-0.4-11.5-1v-16.1c1.4,0.3,4.2,0.5,6.7,0.5
			c8.7,0,12.8-2.7,13.6-9.3l0.4-1.8L694,185.8h25.7l13.9,58.3h0.9l14.4-58.3h24.8C765.3,212.8,749.7,259.2,749.5,259.9z"/>
	</g>
	<g>
		<path class="st1" d="M157.6,245.2c-37-1.4-67.3-31.1-69.3-68.1c-2.2-40.9,29.9-74.9,70.1-76c1,0,1.9-0.9,1.9-1.9V83
			c0-1.1-0.9-1.9-1.9-1.9c-0.9,0-1.9,0.1-2.8,0.1c-1.6,0.1-3.1,0.2-4.7,0.4c-2.3,0.2-4.6,0.6-6.9,1c-1.5,0.3-3,0.6-4.5,0.9
			c-0.7,0.2-1.5,0.4-2.2,0.5c-2.2,0.6-4.4,1.2-6.5,1.9c-1.4,0.5-2.8,1-4.2,1.5c-2.1,0.8-4.1,1.7-6.2,2.7c-2,1-4,2-5.9,3.1
			s-3.8,2.3-5.6,3.5c-0.6,0.4-1.2,0.8-1.8,1.3c-1.2,0.9-2.4,1.7-3.5,2.7s-2.3,1.8-3.4,2.8c-1.1,1-2.2,2-3.3,3
			c-1.1,1-2.1,2.1-3.1,3.1c-1,1.1-2,2.2-3,3.3c-1.4,1.7-2.8,3.4-4.2,5.2c-0.9,1.2-1.7,2.4-2.6,3.6c-0.8,1.2-1.6,2.5-2.4,3.7
			c-8.5,13.9-13.3,30.3-13.3,47.7c0,1.6,0,3.2,0.1,4.7c0.1,1.6,0.2,3.1,0.4,4.7c0.2,2.3,0.6,4.6,1,6.9c0.3,1.5,0.6,3,0.9,4.5
			c0.2,0.7,0.4,1.5,0.5,2.2c0.6,2.2,1.2,4.4,1.9,6.5c0.5,1.4,1,2.8,1.5,4.2c0.8,2.1,1.7,4.1,2.7,6.2c1,2,2,4,3.1,5.9
			s2.3,3.8,3.5,5.6c0.4,0.6,0.8,1.2,1.3,1.8c1.7,2.4,3.5,4.7,5.5,7c1,1.1,2,2.2,3,3.3c1,1.1,2.1,2.1,3.1,3.1c1.1,1,2.2,2,3.3,3
			c2.2,1.9,4.5,3.8,7,5.5c0.6,0.4,1.2,0.8,1.8,1.3c1.8,1.2,3.7,2.4,5.6,3.5s3.9,2.1,5.9,3.1c2,1,4.1,1.9,6.2,2.7
			c1.4,0.5,2.8,1.1,4.2,1.5c2.1,0.7,4.3,1.4,6.5,1.9c0.7,0.2,1.5,0.4,2.2,0.5c1.5,0.3,3,0.6,4.5,0.9c2.3,0.4,4.6,0.7,6.9,1
			c1.5,0.2,3.1,0.3,4.7,0.4c1.6,0.1,3.1,0.1,4.7,0.1c11.9,0,23.3-2.3,33.8-6.4c1.4-0.5,2.8-1.1,4.1-1.7c2-0.9,4-1.9,6-3
			c1.3-0.7,2.6-1.4,3.9-2.2s2.5-1.6,3.7-2.4s2.4-1.7,3.6-2.6c1.5-1.1,3-2.3,4.4-3.5c0.8-0.6,1.5-1.3,2.2-2c0.1-0.1,0.2-0.2,0.3-0.3
			c1-0.9,2.1-1.9,3-2.9c0,0,0,0,0,0c1.4-1.4,2.8-2.9,4.1-4.4c0.4-0.5,0.9-1,1.3-1.5c0.6-0.8,1.3-1.5,1.9-2.3
			c1.6-2.1,3.2-4.3,4.6-6.5c0.4-0.6,0.8-1.3,1.2-1.9c6-9.7,10.2-20.5,12.3-32.2c0.3-1.9-1.1-3.6-3.1-3.6h-14.1c-1.5,0-2.7,1-3,2.4
			C223.7,221.6,193.4,246.5,157.6,245.2z"/>
		<g>
			<path class="st1" d="M322.5,7.6c-0.1-0.4-0.4-0.7-0.8-0.8c-1.1-0.2-26.5-4.1-59.6,29c0,0-4.3,4.5-9,10.7l-17,4.7
				c-0.2,0.1-0.4,0.2-0.5,0.3l-12.1,14.5c-0.2,0.2-0.2,0.4-0.2,0.7c0,0.1,0,0.2,0,0.3c0.1,0.3,0.4,0.6,0.7,0.7l17.1,5
				c-0.1,3.6,0.7,6.8,2.5,9.5l-5.4,6.6c-0.3,0.4-0.3,1,0.1,1.4l5.2,4.9c0.2,0.2,0.5,0.3,0.7,0.3c0.3,0,0.5-0.1,0.7-0.3l6-6.5
				c1.5,0.6,5.3,1.6,11.1,0.5l6.1,16.8c0.1,0.3,0.4,0.6,0.7,0.7c0.3,0.1,0.7,0,0.9-0.3l13.7-13c0.2-0.2,0.3-0.3,0.3-0.6l3.1-17.2
				c3.7-3.2,7.5-7,11.2-11.2c21.4-24.1,24.6-42.9,24.6-52C322.8,9.3,322.5,7.7,322.5,7.6z M282,58.5c-5.8,0-10.4-4.7-10.4-10.4
				c0-5.8,4.7-10.4,10.4-10.4c5.8,0,10.4,4.7,10.4,10.4C292.4,53.8,287.8,58.5,282,58.5z"/>
		</g>
		<path class="st1" d="M236.3,98.2l-2.2-2.2c-1.2-1.2-2.6-1.8-3.1-1.3l-82.7,82.7c-0.5,0.5,0.1,1.9,1.3,3.1l2.2,2.2
			c1.2,1.2,2.6,1.8,3.1,1.3l82.7-82.7C238.1,100.8,237.5,99.4,236.3,98.2z"/>
		<path class="st1" d="M230.7,117.7l-82.7,82.7c-0.5,0.5,0.1,1.9,1.3,3.1l2.2,2.2c1.2,1.2,2.6,1.8,3.1,1.3l82.7-82.7
			c0.5-0.5-0.1-1.9-1.3-3.1l-2.2-2.2C232.6,117.8,231.2,117.2,230.7,117.7z"/>
		<path class="st1" d="M125.5,181.2l2.2,2.2c1.2,1.2,2.6,1.8,3.1,1.3l82.7-82.7c0.5-0.5-0.1-1.9-1.3-3.1l-2.2-2.2
			c-1.2-1.2-2.6-1.8-3.1-1.3l-82.7,82.7C123.7,178.6,124.3,180,125.5,181.2z"/>
	</g>
</g>
</svg>
